<svg version="1.0" xmlns="http://www.w3.org/2000/svg"
 width="300" height="300" viewBox="150 150 300 300"
 preserveAspectRatio="xMidYMid meet">

<g transform="translate(0,600) scale(0.100000,-0.100000)"
fill="#ffffff" stroke="none">
<path d="M0 3000 l0 -3000 3000 0 3000 0 0 3000 0 3000 -3000 0 -3000 0 0
-3000z m2260 1065 l0 -25 725 0 725 0 0 25 c0 20 5 25 25 25 23 0 25 -3 25
-50 l0 -50 -775 0 -775 0 0 50 c0 47 2 50 25 50 20 0 25 -5 25 -25z m1400
-200 l0 -25 -320 0 c-249 0 -322 -3 -325 -13 -3 -7 -4 -153 -3 -326 l3 -314
48 61 47 60 0 216 0 216 325 0 325 0 0 -50 c0 -47 -2 -50 -25 -50 -20 0 -25 5
-25 25 l0 25 -272 -2 -273 -3 -3 -152 c-1 -84 1 -153 5 -153 9 1 83 94 83 104
0 3 -9 6 -20 6 -15 0 -20 7 -20 25 0 24 2 25 75 25 41 0 75 -2 75 -5 0 -3
-109 -138 -241 -300 l-242 -295 -108 0 -109 0 0 300 0 300 50 0 c46 0 50 -2
50 -24 0 -18 -6 -25 -22 -28 l-23 -3 -3 -247 -2 -248 50 0 50 0 0 350 0 350
-272 -2 -273 -3 -3 -22 c-3 -17 -10 -23 -28 -23 -22 0 -24 4 -24 50 l0 50 325
0 325 0 2 -367 3 -368 48 59 47 58 0 359 0 359 -325 0 -325 0 0 25 0 25 675 0
675 0 0 -25z m-1250 -1050 l0 -725 -50 0 c-47 0 -50 2 -50 25 0 20 5 25 25 25
l25 0 0 675 0 675 -25 0 c-20 0 -25 5 -25 25 0 23 3 25 50 25 l50 0 0 -725z
m1350 701 c0 -16 -6 -26 -19 -28 -10 -2 -125 -133 -256 -293 -131 -159 -255
-311 -276 -336 l-38 -46 274 -334 c172 -209 282 -335 295 -337 14 -2 20 -11
20 -28 0 -20 -5 -24 -32 -24 -29 0 -41 10 -99 83 -37 45 -166 204 -289 352
-122 149 -224 275 -227 282 -2 6 129 174 292 372 266 324 300 361 326 361 24
0 29 -4 29 -24z m-1200 -376 l0 -300 178 0 178 0 257 300 c231 270 260 300
287 300 16 0 30 -2 30 -5 0 -5 -455 -540 -507 -596 l-24 -26 73 -84 c99 -113
430 -500 447 -521 12 -16 10 -18 -20 -18 -32 1 -49 19 -289 300 l-255 299
-175 -2 -175 -2 -3 -312 -2 -313 -25 0 -25 0 0 640 0 640 25 0 25 0 0 -300z
m540 -726 c124 -151 233 -286 243 -300 l19 -24 -76 0 c-74 0 -76 1 -76 25 0
18 5 25 20 25 25 0 18 15 -34 75 l-35 40 -1 -157 0 -158 25 0 c20 0 25 -5 25
-25 0 -23 -3 -25 -50 -25 l-50 0 0 218 -1 217 -49 55 -49 55 -1 -237 0 -238
-25 0 -25 0 0 271 0 272 -42 53 c-24 29 -46 53 -50 54 -5 0 -8 -162 -8 -360
l0 -360 -50 0 c-47 0 -50 2 -50 25 0 20 5 25 25 25 l25 0 0 351 0 350 -47 -3
-48 -3 -3 -247 -2 -248 25 0 c20 0 25 -5 25 -25 0 -23 -3 -25 -50 -25 l-50 0
0 300 0 300 108 0 107 0 225 -276z"/>
</g>
</svg>